<?xml version="1.0" standalone="no"?>
<!DOCTYPE svg PUBLIC "-//W3C//DTD SVG 20010904//EN"
 "http://www.w3.org/TR/2001/REC-SVG-20010904/DTD/svg10.dtd">
<svg version="1.0" xmlns="http://www.w3.org/2000/svg"
 width="572.000000pt" height="572.000000pt" viewBox="0 0 572.000000 572.000000"
 preserveAspectRatio="xMidYMid meet">
<metadata>
Created by potrace 1.14, written by Peter Selinger 2001-2017
</metadata>
<g transform="translate(0.000000,572.000000) scale(0.100000,-0.100000)"
fill="#000000" stroke="none">
<path d="M4465 5691 c-22 -10 -47 -27 -56 -37 -25 -28 -218 -378 -213 -385 4
-8 359 -204 385 -214 13 -5 38 32 118 176 55 100 101 186 101 190 0 5 -38 71
-84 146 l-83 138 -64 2 c-46 2 -76 -2 -104 -16z"/>
<path d="M4680 5697 c0 -5 61 -110 135 -234 75 -124 134 -226 133 -228 -2 -1
-49 -28 -105 -60 -56 -33 -100 -61 -98 -63 7 -7 499 19 507 26 10 10 236 417
233 420 -2 2 -42 -20 -90 -48 -47 -29 -88 -50 -89 -48 -1 1 -27 43 -56 91 -60
98 -95 134 -143 142 -55 9 -427 10 -427 2z"/>
<path d="M0 2615 l0 -2615 495 0 495 0 0 1050 0 1050 298 0 297 0 587 -1048
587 -1047 595 -3 c328 -1 596 0 596 2 0 2 -277 482 -616 1067 -339 584 -618
1067 -620 1073 -2 6 32 23 78 39 112 39 227 95 323 158 101 67 277 241 343
340 260 390 344 964 216 1474 -89 350 -251 609 -503 798 -156 118 -341 202
-546 248 l-100 23 -1262 3 -1263 4 0 -2616z m2361 1645 c125 -38 226 -125 285
-245 57 -117 69 -180 68 -350 0 -141 -2 -156 -32 -245 -60 -181 -153 -283
-311 -343 -55 -21 -71 -22 -718 -25 l-663 -3 0 616 0 615 654 0 c622 0 657 -1
717 -20z"/>
<path d="M5293 5081 c-106 -64 -193 -120 -193 -124 0 -5 48 -89 107 -188 l108
-179 125 1 c194 1 208 5 245 63 25 41 30 60 30 110 0 59 -3 65 -104 236 -57
96 -109 180 -115 186 -8 9 -60 -18 -203 -105z"/>
<path d="M3986 5081 l-99 -6 87 -48 c47 -27 86 -51 86 -54 0 -3 -23 -46 -52
-97 -82 -146 -82 -146 47 -375 59 -105 110 -191 113 -191 4 0 60 96 125 214
65 117 124 221 131 231 12 17 20 15 120 -43 58 -33 106 -59 106 -56 0 3 -62
101 -137 219 l-138 215 -145 -2 c-80 -1 -190 -4 -244 -7z"/>
<path d="M4959 4575 l-117 -227 127 -211 126 -211 5 105 5 104 122 5 c102 4
126 8 150 26 24 18 243 365 243 387 0 4 -120 7 -267 7 l-268 -1 -5 122 -5 122
-116 -228z"/>
<path d="M4314 4493 c-21 -38 -57 -103 -82 -147 -39 -70 -43 -82 -32 -105 24
-55 65 -103 104 -123 38 -20 56 -21 261 -19 121 1 221 4 223 6 2 1 0 105 -4
229 l-7 226 -213 0 -213 0 -37 -67z"/>
<path d="M4300 1865 l0 -1865 495 0 495 0 -2 1863 -3 1862 -492 3 -493 2 0
-1865z"/>
</g>
</svg>
