<svg id="Layer_1" data-name="Layer 1" xmlns="http://www.w3.org/2000/svg" xmlns:xlink="http://www.w3.org/1999/xlink" viewBox="0 0 380.75 255.32"><defs><style>.cls-1,.cls-3,.cls-9{fill:none;}.cls-2{clip-path:url(#clip-path);}.cls-3,.cls-9{stroke:#231f20;stroke-linecap:round;}.cls-3{stroke-linejoin:round;stroke-width:16px;}.cls-4{clip-path:url(#clip-path-2);}.cls-5{clip-path:url(#clip-path-3);}.cls-6{fill:#fff;}.cls-7{fill:#231f20;}.cls-8{clip-path:url(#clip-path-4);}.cls-9{stroke-miterlimit:10;stroke-width:6px;}</style><clipPath id="clip-path" transform="translate(-116.05 -43.19)"><rect class="cls-1" x="116.05" y="76.93" width="190.37" height="221.58"/></clipPath><clipPath id="clip-path-2" transform="translate(-116.05 -43.19)"><rect class="cls-1" x="306.43" y="76.93" width="190.37" height="221.58"/></clipPath><clipPath id="clip-path-3" transform="translate(-116.05 -43.19)"><rect class="cls-1" x="299.53" y="43.19" width="165.91" height="243.28"/></clipPath><clipPath id="clip-path-4" transform="translate(-116.05 -43.19)"><rect class="cls-1" x="148.21" y="43.19" width="165.91" height="243.28"/></clipPath></defs><g id="_Mirror_Repeat_" data-name="&lt;Mirror Repeat&gt;"><g class="cls-2"><path class="cls-3" d="M233.64,263.74a270.57,270.57,0,0,1,73.45,26.77q-.27-69.36-.53-138.73A270.88,270.88,0,0,0,134.34,84.93L124.05,263.74A272.53,272.53,0,0,1,233.64,263.74Z" transform="translate(-116.05 -43.19)"/></g></g><g id="_Mirror_Repeat_2" data-name="&lt;Mirror Repeat&gt;"><g class="cls-4"><path class="cls-3" d="M379.22,263.74a270.45,270.45,0,0,0-73.45,26.77q.27-69.36.53-138.73A270.88,270.88,0,0,1,478.52,84.93q5.14,89.4,10.28,178.81A272.48,272.48,0,0,0,379.22,263.74Z" transform="translate(-116.05 -43.19)"/></g></g><g id="_Mirror_Repeat_3" data-name="&lt;Mirror Repeat&gt;"><g class="cls-5"><path class="cls-6" d="M315.53,278.47a7.9,7.9,0,0,1-3.32-.73,8,8,0,0,1-4.68-7.27V110.64a8,8,0,0,1,2.31-5.62,182.14,182.14,0,0,1,67.05-43,180,180,0,0,1,61.58-10.79l3,0a8,8,0,0,1,7.86,7.62l8.11,166.84a8,8,0,0,1-8,8.39l-.51,0c-4-.25-8.06-.38-12-.38a176.94,176.94,0,0,0-76.38,16.87,175.07,175.07,0,0,0-39.74,26A8,8,0,0,1,315.53,278.47Z" transform="translate(-116.05 -43.19)"/><path class="cls-7" d="M438.46,59.19l2.87,0q4.05,83.43,8.11,166.85c-3.65-.23-7.86-.4-12.55-.4a186.4,186.4,0,0,0-79.81,17.64,182.21,182.21,0,0,0-41.55,27.17V110.64A172.24,172.24,0,0,1,438.46,59.19m0-16a187.94,187.94,0,0,0-64.3,11.27,190.15,190.15,0,0,0-70,44.94,16,16,0,0,0-4.62,11.24V270.47A16,16,0,0,0,326,282.55a166.91,166.91,0,0,1,37.92-24.79,169.06,169.06,0,0,1,73-16.1c3.82,0,7.7.12,11.53.37q.51,0,1,0a16,16,0,0,0,16-16.78L457.31,58.44a16,16,0,0,0-15.72-15.22c-1,0-2,0-3.13,0Z" transform="translate(-116.05 -43.19)"/></g></g><g id="_Mirror_Repeat_4" data-name="&lt;Mirror Repeat&gt;"><g class="cls-8"><path class="cls-6" d="M298.12,278.47a8,8,0,0,1-5.24-2,174.73,174.73,0,0,0-39.74-26,177,177,0,0,0-76.39-16.87c-4,0-8,.13-12,.38l-.51,0a8,8,0,0,1-8-8.39l8.11-166.84a8,8,0,0,1,7.86-7.62l3,0A180,180,0,0,1,236.76,62a182.22,182.22,0,0,1,67.05,43,8,8,0,0,1,2.31,5.62V270.47a8,8,0,0,1-4.68,7.27A7.9,7.9,0,0,1,298.12,278.47Z" transform="translate(-116.05 -43.19)"/><path class="cls-7" d="M175.19,59.19a172.24,172.24,0,0,1,122.93,51.45V270.47a182.21,182.21,0,0,0-41.55-27.17,186.4,186.4,0,0,0-79.81-17.64c-4.69,0-8.9.17-12.55.4q4-83.43,8.11-166.85l2.87,0m0-16h0c-1.08,0-2.13,0-3.13,0a16,16,0,0,0-15.72,15.22l-8.11,166.84a16,16,0,0,0,16,16.78q.51,0,1,0c3.83-.25,7.71-.37,11.53-.37a169.06,169.06,0,0,1,73,16.1,166.91,166.91,0,0,1,37.92,24.79,16,16,0,0,0,26.48-12.08V110.64A16,16,0,0,0,309.5,99.4a190.15,190.15,0,0,0-70-44.94,188,188,0,0,0-64.3-11.27Z" transform="translate(-116.05 -43.19)"/></g></g><path class="cls-7" d="M232,141.62l25.37,4.22,15.9-18.13-9.89,3.2q-1.53-4.51-3.07-9a6.92,6.92,0,0,0-1.73-2.91,7.86,7.86,0,0,0-3.21-1.86,13.17,13.17,0,0,0-1.8-.44c-1.53-.33-3.38-.74-5.47-1.22l-12.41-2.83,8.47,25.08Z" transform="translate(-116.05 -43.19)"/><path class="cls-7" d="M233.86,112.21q2.61,7.67,5.21,15.31l-13.8,15.7-17-14.81,13.31-15a9.21,9.21,0,0,1,5.51-2.43,17.76,17.76,0,0,1,5,.76C232.85,111.89,233.45,112.08,233.86,112.21Z" transform="translate(-116.05 -43.19)"/><path class="cls-7" d="M224.27,162.88l-9-24.07-23.65-4.71,7.71,7L193,148.23a7.13,7.13,0,0,0-1.66,3,7.92,7.92,0,0,0,0,3.72,13,13,0,0,0,.52,1.78c.48,1.49,1.05,3.29,1.68,5.35l3.75,12.16,17.49-19.88Z" transform="translate(-116.05 -43.19)"/><path class="cls-7" d="M197.86,176l10.65-12.16,20.5,4.09Q226.85,179,224.68,190L205,186a9.2,9.2,0,0,1-4.86-3.56,17.26,17.26,0,0,1-1.86-4.75C198.08,177,198,176.38,197.86,176Z" transform="translate(-116.05 -43.19)"/><path class="cls-7" d="M246.05,159l-16.33,19.85q3.87,11.43,7.75,22.84l2.17-10.16,9.34,1.85a7.05,7.05,0,0,0,3.39,0,7.88,7.88,0,0,0,3.22-1.85,12.83,12.83,0,0,0,1.28-1.34c1.05-1.16,2.33-2.55,3.79-4.13q4.33-4.67,8.66-9.32l-26-5.21Z" transform="translate(-116.05 -43.19)"/><path class="cls-7" d="M270.58,175.35l-15.86-3.15q-3.36-9.9-6.7-19.8l21.33-7.32q3.19,9.51,6.37,19a9.22,9.22,0,0,1-.65,6,17.4,17.4,0,0,1-3.18,4C271.36,174.63,270.9,175.06,270.58,175.35Z" transform="translate(-116.05 -43.19)"/><path class="cls-9" d="M334.56,145.94a151,151,0,0,1,91.7-37.8" transform="translate(-116.05 -43.19)"/><path class="cls-9" d="M338.12,178.55a150.95,150.95,0,0,1,91.69-37.8" transform="translate(-116.05 -43.19)"/><path class="cls-9" d="M338.86,209.88a151,151,0,0,1,91.7-37.8" transform="translate(-116.05 -43.19)"/></svg>