<svg id="Layer_1" data-name="Layer 1" xmlns="http://www.w3.org/2000/svg" viewBox="0 0 96.58 121.27"><defs><style>.cls-1{fill:#231f20;}.cls-2,.cls-3{fill:none;stroke:#231f20;stroke-linecap:round;stroke-width:9px;}.cls-2{stroke-linejoin:round;}.cls-3{stroke-miterlimit:10;}.cls-4{fill:#fff;}</style></defs><rect class="cls-1" x="14.52" y="30" width="30.46" height="48.79" rx="3.08"/><path class="cls-2" d="M267.92,394.42l-13.71,21.16,14.57,12.33" transform="translate(-249.71 -359.86)"/><path class="cls-2" d="M290.87,394.42l8.7,17.14,14,9" transform="translate(-249.71 -359.86)"/><circle class="cls-1" cx="29.75" cy="12.99" r="12.99"/><path class="cls-3" d="M272.21,476.64q.26-23.34.53-46.68" transform="translate(-249.71 -359.86)"/><path class="cls-3" d="M286.45,476.51l.27-46.42" transform="translate(-249.71 -359.86)"/><circle class="cls-1" cx="71.93" cy="72.31" r="4.27"/><path class="cls-1" d="M307.91,442.6l38.38-.18q-2.82,19.29-5.63,38.56l-27.12-.12Q310.72,461.74,307.91,442.6Z" transform="translate(-249.71 -359.86)"/><path class="cls-4" d="M326.14,457.69l6.75-.34,3.07-5.54-2.36,1.37L332.31,451a1.8,1.8,0,0,0-.61-.65,2.07,2.07,0,0,0-.93-.3,2,2,0,0,0-.48,0h-1.48l-3.34,0,3.57,6Z" transform="translate(-249.71 -359.86)"/><path class="cls-4" d="M325,450l2.19,3.64-2.67,4.8-5.19-2.86,2.58-4.6a2.36,2.36,0,0,1,1.28-.93,4.75,4.75,0,0,1,1.34-.09A4.36,4.36,0,0,1,325,450Z" transform="translate(-249.71 -359.86)"/><path class="cls-4" d="M325.34,463.58l-3.66-5.68-6.34.11,2.37,1.36-1.21,2.19a1.89,1.89,0,0,0-.26.85,1.94,1.94,0,0,0,.21.95,2.63,2.63,0,0,0,.23.43l.73,1.28,1.64,2.92,3.38-6.09Z" transform="translate(-249.71 -359.86)"/><path class="cls-4" d="M319.29,468.41l2.06-3.72,5.49-.09.12,5.93-5.27.07a2.4,2.4,0,0,1-1.45-.65,4.48,4.48,0,0,1-.74-1.11A4,4,0,0,1,319.29,468.41Z" transform="translate(-249.71 -359.86)"/><path class="cls-4" d="M330.72,461.37l-3.09,6,3.27,5.43v-2.73l2.5,0a1.93,1.93,0,0,0,.87-.2,2,2,0,0,0,.72-.66,2.55,2.55,0,0,0,.26-.42c.21-.35.45-.78.74-1.27l1.71-2.88-7,.11Z" transform="translate(-249.71 -359.86)"/><path class="cls-4" d="M337.93,464.2l-4.25.07-2.82-4.71,5.07-3.07,2.7,4.53a2.51,2.51,0,0,1,.17,1.58,4.65,4.65,0,0,1-.6,1.2C338.1,464,338,464.1,337.93,464.2Z" transform="translate(-249.71 -359.86)"/></svg>