<svg id="Layer_1" data-name="Layer 1" xmlns="http://www.w3.org/2000/svg" xmlns:xlink="http://www.w3.org/1999/xlink" viewBox="0 0 386.26 479.27"><defs><style>.cls-1{fill:none;}.cls-2{clip-path:url(#clip-path);}.cls-3,.cls-6{fill:#231f20;}.cls-4{clip-path:url(#clip-path-2);}.cls-5{fill:#fff;}.cls-6{stroke:#231f20;stroke-linecap:round;stroke-linejoin:round;}</style><clipPath id="clip-path" transform="translate(-99.45 -259.71)"><rect class="cls-1" x="99.45" y="498.86" width="153.91" height="240.12"/></clipPath><clipPath id="clip-path-2" transform="translate(-99.45 -259.71)"><rect class="cls-1" x="331.8" y="498.86" width="153.91" height="240.12"/></clipPath></defs><g id="_Mirror_Repeat_" data-name="&lt;Mirror Repeat&gt;"><g class="cls-2"><path class="cls-3" d="M197,738.48a.49.49,0,0,1-.49-.58,75.19,75.19,0,0,0-.79-29.79c-1.79-7.73-6.63-22.57-19-35a64.42,64.42,0,0,0-12-9.68,56.81,56.81,0,0,0-8.34-4.25c-1.79-.78-3.82-1.66-6.52-3-3.66-1.79-11.27-5.52-17.22-10.07-5.29-4-11.07-11.14-16.28-20A135.71,135.71,0,0,1,100,580.7l.35-34.4.35-33.78a16,16,0,0,1,.66-5.93c1.36-4.35,3.12-6.76,5.23-7.17a3.55,3.55,0,0,1,.64-.06c3.39,0,6.77,4.9,9,9a34.92,34.92,0,0,1,4.08,14.77c.21,4.13.47,8.73.76,13.77.46,8.14,1,17.37,1.48,27.73a.51.51,0,0,1-.45.52c-6.44.59-8.93,3.16-9.84,4.64-2.7,4.38-.45,11.36,6.66,20.76a39.68,39.68,0,0,0,8.71,8.39c1.34,1,2.74,2.09,4.31,3.44,5.51,4.73,7.39,8.11,9.76,12.39a90.6,90.6,0,0,0,10.08,15c5.95,7.31,11.82,13.12,17,16.82a74.36,74.36,0,0,0,7.91,5,86,86,0,0,1-8.35-7,101,101,0,0,1-15-18.68,84.54,84.54,0,0,1-6.46-11.39,30.52,30.52,0,0,0-5.27-8.19c-1.67-1.92-6.18-6-15.17-14.18l-.42-.38c-5.37-4.88-9.25-8.4-9.65-13.82-.1-1.27-.34-4.64,1.74-6.54a5.88,5.88,0,0,1,4.08-1.34c5.66,0,13.91,4.93,16.31,6.44a49.11,49.11,0,0,1,10.46,9c1.18,1.25,2.4,2.53,3.86,4C161.54,598,170,602.6,177.5,606.68a125.21,125.21,0,0,0,33.69,12.41,63.22,63.22,0,0,1,26.19,18.17,64.15,64.15,0,0,1,15,39.87l.52,60.85a.54.54,0,0,1-.14.36.52.52,0,0,1-.36.14Z" transform="translate(-99.45 -259.71)"/><path class="cls-3" d="M107.19,499.86c3.81,0,7.77,7.3,8.56,8.76a34.3,34.3,0,0,1,4,14.55c.56,10.78,1.43,24.69,2.24,41.49-7.35.68-9.64,3.94-10.22,4.88-4.26,6.92,4.41,18.31,6.73,21.36,4.48,5.92,7.92,7.47,13,11.87,10.1,8.66,7.68,12.44,19.78,27.3,8.89,10.9,15.22,15.58,17.06,16.91a75,75,0,0,0,14.19,8,86.48,86.48,0,0,1-14-10.83,100,100,0,0,1-15-18.59c-7.77-11.8-6-13-11.77-19.64-1.69-1.94-6.21-6-15.23-14.24-5.55-5-9.5-8.49-9.89-13.84-.1-1.28-.33-4.4,1.58-6.13a5.36,5.36,0,0,1,3.74-1.22c5.95,0,14.84,5.6,16,6.36,6.67,4.2,9,7.71,14.24,12.86,8.9,8.67,17.37,13.29,24.92,17.4a125.42,125.42,0,0,0,33.83,12.46,62.58,62.58,0,0,1,25.91,18c13.59,16,14.71,33.95,14.84,39.56q.25,30.42.52,60.84H197a76.06,76.06,0,0,0-.79-30c-1.12-4.85-5.49-21.52-19.12-35.21A65.79,65.79,0,0,0,164.93,663c-5.32-3.31-7.87-3.81-14.9-7.25-3.77-1.85-11.22-5.5-17.14-10-1.72-1.31-8.3-6.52-16.15-19.85-5-8.45-12.44-23.51-16.29-45.29q.36-34.05.71-68.1a15.46,15.46,0,0,1,.64-5.78c.41-1.31,2-6.27,4.85-6.83a3.29,3.29,0,0,1,.54-.05m0-1h0a4.4,4.4,0,0,0-.73.07c-2.31.44-4.2,3-5.61,7.51a16.52,16.52,0,0,0-.69,6.11l-.36,34-.35,34.05a1.1,1.1,0,0,0,0,.18,136.22,136.22,0,0,0,16.4,45.63c5.25,8.91,11.08,16.06,16.41,20.13,6,4.59,13.64,8.33,17.31,10.13,2.71,1.32,4.74,2.21,6.54,3a56.36,56.36,0,0,1,8.28,4.21,64.67,64.67,0,0,1,12,9.62c12.73,12.77,17.42,28.54,18.85,34.73a74.33,74.33,0,0,1,.78,29.58,1,1,0,0,0,1,1.17h55.38a1,1,0,0,0,.71-.29,1,1,0,0,0,.29-.71l-.26-30.29-.26-30.55a64.7,64.7,0,0,0-15.08-40.21,63.57,63.57,0,0,0-26.33-18.28l-.13,0a124.94,124.94,0,0,1-33.56-12.37c-7.45-4.06-15.9-8.66-24.7-17.24-1.46-1.42-2.67-2.7-3.85-3.94a49.63,49.63,0,0,0-10.56-9c-3.11-2-10.94-6.51-16.57-6.51a6.36,6.36,0,0,0-4.41,1.47c-2.27,2.06-2,5.61-1.91,6.95.41,5.62,4.36,9.2,9.81,14.15l.4.36c9,8.16,13.5,12.26,15.15,14.16a29.3,29.3,0,0,1,5.19,8.08,86.47,86.47,0,0,0,6.5,11.45,101.9,101.9,0,0,0,15.13,18.76c.8.77,1.62,1.52,2.45,2.25l-1.37-1c-5.12-3.68-10.95-9.47-16.87-16.73a90.54,90.54,0,0,1-10-14.9c-2.4-4.32-4.3-7.74-9.88-12.53-1.58-1.35-3-2.42-4.32-3.46a39,39,0,0,1-8.59-8.25l0,0c-8.69-11.48-8.41-17.32-6.64-20.2.7-1.12,3-3.81,9.46-4.4a1,1,0,0,0,.91-1c-.5-10.35-1-19.57-1.48-27.71-.28-5-.55-9.65-.76-13.79a35.49,35.49,0,0,0-4.14-15c-2.3-4.23-5.8-9.28-9.44-9.28Z" transform="translate(-99.45 -259.71)"/></g></g><g id="_Mirror_Repeat_2" data-name="&lt;Mirror Repeat&gt;"><g class="cls-4"><path class="cls-3" d="M332.8,738.48a.5.5,0,0,1-.35-.14.51.51,0,0,1-.15-.36l.53-60.84a64.1,64.1,0,0,1,14.95-39.88,63.23,63.23,0,0,1,26.12-18.15,125.52,125.52,0,0,0,33.76-12.43c7.48-4.07,16-8.7,24.82-17.32,1.46-1.43,2.68-2.72,3.86-4a49.17,49.17,0,0,1,10.46-9c3.07-1.93,10.81-6.43,16.31-6.43a5.86,5.86,0,0,1,4.07,1.34c2.09,1.9,1.84,5.27,1.75,6.54-.4,5.42-4.28,8.94-9.65,13.81l-.4.37c-9,8.18-13.52,12.28-15.2,14.2a30.2,30.2,0,0,0-5.26,8.19A84.54,84.54,0,0,1,432,625.84a101.56,101.56,0,0,1-15.06,18.68,86,86,0,0,1-8.35,7,73.37,73.37,0,0,0,7.91-5c5.15-3.7,11-9.52,17-16.82a91,91,0,0,0,10.07-15c2.38-4.28,4.25-7.66,9.77-12.39,1.57-1.35,3-2.41,4.3-3.44a39.39,39.39,0,0,0,8.68-8.35c7.15-9.44,9.39-16.42,6.7-20.8-.91-1.48-3.4-4-9.84-4.64a.5.5,0,0,1-.45-.52c.5-10.35,1-19.57,1.48-27.7.28-5.05.54-9.66.76-13.8A34.68,34.68,0,0,1,469,508.38c2.23-4.12,5.6-9,9-9a3.39,3.39,0,0,1,.64.06c2.12.41,3.88,2.82,5.23,7.17a16,16,0,0,1,.66,6l.71,68.05a135.5,135.5,0,0,1-16.35,45.56c-5.22,8.85-11,16-16.28,20-6,4.55-13.57,8.28-17.22,10.07-2.7,1.32-4.73,2.2-6.52,3a56.32,56.32,0,0,0-8.34,4.25,65,65,0,0,0-12.05,9.68c-12.36,12.41-17.2,27.24-19,35a75,75,0,0,0-.79,29.79.56.56,0,0,1-.11.41.52.52,0,0,1-.38.17Z" transform="translate(-99.45 -259.71)"/><path class="cls-3" d="M478,499.86a3.31,3.31,0,0,1,.55.05c2.89.56,4.44,5.52,4.84,6.83a15.5,15.5,0,0,1,.65,5.78q.35,34.05.7,68.1c-3.85,21.78-11.3,36.84-16.28,45.29-7.85,13.33-14.44,18.54-16.16,19.85-5.91,4.52-13.37,8.17-17.14,10-7,3.44-9.58,3.94-14.9,7.25a65.62,65.62,0,0,0-12.13,9.76c-13.64,13.69-18,30.36-19.12,35.21a75.87,75.87,0,0,0-.79,30H332.8q.27-30.42.53-60.84c.13-5.61,1.25-23.59,14.84-39.56a62.52,62.52,0,0,1,25.91-18,125.46,125.46,0,0,0,33.82-12.46c7.55-4.11,16-8.73,24.92-17.4,5.28-5.15,7.58-8.66,14.25-12.86,1.2-.76,10.09-6.36,16-6.36a5.41,5.41,0,0,1,3.75,1.22c1.9,1.73,1.67,4.85,1.58,6.13-.39,5.35-4.34,8.8-9.89,13.84-9,8.2-13.54,12.3-15.23,14.24-5.8,6.68-4,7.84-11.77,19.64a100,100,0,0,1-15,18.59,86.48,86.48,0,0,1-14,10.83,74.36,74.36,0,0,0,14.19-8c1.84-1.33,8.18-6,17.06-16.91,12.11-14.86,9.69-18.64,19.78-27.3,5.14-4.4,8.58-5.95,13.06-11.87,2.31-3,11-14.44,6.72-21.36-.57-.94-2.87-4.2-10.22-4.88.82-16.8,1.69-30.71,2.25-41.49a34.3,34.3,0,0,1,4-14.55c.79-1.46,4.74-8.76,8.55-8.76m0-1c-3.64,0-7.14,5.05-9.43,9.28a35.2,35.2,0,0,0-4.14,15c-.22,4.14-.48,8.83-.76,13.79-.46,8.14-1,17.36-1.48,27.71a1,1,0,0,0,.9,1c6.46.59,8.77,3.28,9.46,4.4,1.77,2.88,2.06,8.72-6.64,20.19l0,0a39.15,39.15,0,0,1-8.58,8.25c-1.35,1-2.75,2.11-4.33,3.46-5.58,4.79-7.48,8.21-9.88,12.53a89.67,89.67,0,0,1-10,14.9c-5.93,7.26-11.76,13-16.87,16.73l-1.37,1c.83-.73,1.65-1.48,2.45-2.25a101.34,101.34,0,0,0,15.12-18.76,85.3,85.3,0,0,0,6.5-11.45,29.78,29.78,0,0,1,5.19-8.08c1.65-1.9,6.16-6,15.15-14.15l.4-.37c5.46-5,9.4-8.53,9.82-14.15.09-1.34.36-4.89-1.91-6.95a6.38,6.38,0,0,0-4.41-1.47c-5.63,0-13.47,4.55-16.58,6.51a49.88,49.88,0,0,0-10.56,9c-1.17,1.24-2.39,2.52-3.84,3.94-8.81,8.58-17.25,13.18-24.71,17.24a125,125,0,0,1-33.55,12.37l-.14,0a63.57,63.57,0,0,0-26.33,18.28,64.61,64.61,0,0,0-15.07,40.19l-.26,30.3L331.8,738a1,1,0,0,0,1,1h55.39a1,1,0,0,0,1-1.17,74.7,74.7,0,0,1,.78-29.58c1.43-6.19,6.13-22,18.85-34.73a64.85,64.85,0,0,1,12-9.62,56.29,56.29,0,0,1,8.27-4.21c1.8-.78,3.84-1.67,6.54-3,3.67-1.8,11.31-5.54,17.31-10.13,5.34-4.07,11.16-11.22,16.41-20.13a136.23,136.23,0,0,0,16.41-45.63.55.55,0,0,0,0-.18l-.35-34.05-.35-34a16.52,16.52,0,0,0-.69-6.11c-1.41-4.54-3.3-7.07-5.62-7.51a4.3,4.3,0,0,0-.73-.07Z" transform="translate(-99.45 -259.71)"/></g></g><path class="cls-3" d="M292.58,269.71a169.6,169.6,0,1,1-119.93,49.68,168.5,168.5,0,0,1,119.93-49.68m0-10c-99.19,0-179.6,80.42-179.6,179.61a179.61,179.61,0,1,0,179.6-179.61Z" transform="translate(-99.45 -259.71)"/><path class="cls-3" d="M350.64,599a15.51,15.51,0,0,1-5.91-1.1,20.5,20.5,0,0,1-6.16-4.11c-1.23-1.26-3.05-3.48-4.63-8.24a23.71,23.71,0,0,1-1.31-7.95,47.92,47.92,0,0,0-.79-7.81c-.8-4.43-1.95-7.56-4.24-13.8-2.53-6.89-3.67-8.19-4.9-9.18a15,15,0,0,0-2.31-1.49,5.78,5.78,0,0,1-2.83-2.56,4.07,4.07,0,0,1-.36-2.16,25.26,25.26,0,0,0-.12-3c-.31-3.09-.6-6-2.25-7.68a6,6,0,0,0-4.41-1.49c-.91,0-1.87.09-2.79.18l-1.11.1c-.82.07-1.62.11-2.37.11a23,23,0,0,1-8.6-1.73,29,29,0,0,0-10.61-2.07h-.44a18.72,18.72,0,0,0-7.78,1.44,24.1,24.1,0,0,1-8.69,1.73c-.63,0-1.31,0-2,0a46.46,46.46,0,0,1-18.32-3.7,44.9,44.9,0,0,1-13.56-8.86c-6.39-6.27-8.92-12.93-11-18.28-2.19-5.76-4.46-11.72-4.19-19.85.11-3.32,1.08-14.9,8.86-24.5.18-.22.21-.25,1-1.05,1.14-1.17,3.8-3.92,10.6-11a66.14,66.14,0,0,0,6.9-8,31.43,31.43,0,0,0,3.9-7.09,11.31,11.31,0,0,1,1.88-3.42c2.75-3.32,6.31-3.35,11.7-3.39a67.82,67.82,0,0,0,16.51-1.72,84.89,84.89,0,0,0,11.19-3.64c3-1.14,5.33-2,7.1-2a3.42,3.42,0,0,1,2.37.82c1.14,1,1.26,2.34,1.4,3.91a9.29,9.29,0,0,0,2.25,6.07c1.44,1.58,2.67,1.84,5.14,2.34a62.18,62.18,0,0,1,7.73,2c2.27.74,4,1.42,5.36,2,2.18.87,3.62,1.44,5.22,1.44a8,8,0,0,0,1.83-.23c1.9-.47,3.44-1.57,6.5-3.78a32.85,32.85,0,0,0,4.63-3.91,11.93,11.93,0,0,1,2.21-1.87,7.74,7.74,0,0,1,4.7-1.27c.84,0,1.8.06,2.92.12,1.66.09,3.72.21,6.38.21.81,0,1.68,0,2.62,0,11.79-.32,14.31-2.41,15.19-3.94a4,4,0,0,0,.44-2.26c0-.7,0-1.66.15-3.23a46.52,46.52,0,0,1,1.07-6.92c.44-2,.69-3.06-.08-4.44-1.15-2.07-4-3.52-7-3.52a7,7,0,0,0-3.16.68,4.78,4.78,0,0,0-2.15,2.25,6,6,0,0,1-1.63,2,9.6,9.6,0,0,1-5.9,1.75c-3.37,0-6.42-1.29-7.61-3.21a5.41,5.41,0,0,1-.57-3.37c.07-1.37.14-2.78-1.07-4.09a6.11,6.11,0,0,0-4.29-1.82,3.14,3.14,0,0,0-2.22.75c-.86.81-.65,1.88-.4,3.23a12.68,12.68,0,0,1,.25,4.44c-.49,3.51-2.58,7-4.23,7s-3.08-3.36-3.78-5a14.51,14.51,0,0,1-1.2-4.61,8.13,8.13,0,0,0-.94-3.35c-1.23-2.23-3.05-2.93-7-4.45-.8-.31-1.7-.65-2.7-1.05-4.53-1.8-7.81-3.36-10-4.39s-3.36-1.6-4.07-1.6a.92.92,0,0,0-.78.36c-.28.4-1.12,1.6,6.93,9.1,2.09,2,3.79,3.27,5.16,4.33,2.34,1.82,3.62,2.82,4.19,4.93.65,2.44.33,5.79-1.92,7.37a5.8,5.8,0,0,1-3.34,1c-1.56,0-2.95-.55-3.3-1.3s.18-1.43.77-2.47c.85-1.52,1.9-3.4,1.38-5.86a6.9,6.9,0,0,0-.67-1.79c-1.48-2.94-4.37-4.33-7.42-5.81-.76-.36-1.47-.66-2.76-1.2-2.42-1-5.66-2.28-6.91-2.65a10.68,10.68,0,0,0-3.11-.43A20,20,0,0,0,283,390.67c-1.08.92-1.29,1.29-6.66,10.78l-.84,1.49c-3.83,6.77-5.65,9.8-8.69,10.85a13.07,13.07,0,0,1-4.25.61c-.57,0-1,0-1.32,0a22.5,22.5,0,0,1-6.76-1.62c-3.13-1.13-4.69-1.69-5.64-2.54-1.91-1.72-2.85-5.35-2.45-9.45.44-4.47,2.36-8.22,5-9.79a7,7,0,0,1,3.69-.95,22.13,22.13,0,0,1,5.92,1.14,19.4,19.4,0,0,0,5.06,1,4.47,4.47,0,0,0,3.36-1.27c3-3,.9-9.31.65-10a13.24,13.24,0,0,0-4.95-6.44,28.6,28.6,0,0,0,7.89-3,35.76,35.76,0,0,0,6.41-4.81c.66-.58,1.56-1.43,4.78-4.78,4.09-4.26,6-6.2,6.4-6.94a20,20,0,0,0,2.38-6.8c.27-1.33.48-2.38,1-2.46h0c.33,0,.63.35,1,.8a8,8,0,0,0,2.91,2.33,5.57,5.57,0,0,0,2.53.42,48.69,48.69,0,0,0,5.11-.38c4.78-.54,6.94-.82,8.15-1.68a5.32,5.32,0,0,0,2-2.84,24.14,24.14,0,0,1,1.81-3.64c0-.06,1-1.61,7.33-8.89a.5.5,0,0,0,.12-.41c-.16-1-1.05-5.86-3.05-6.21a.9.9,0,0,0-.23,0c-.82,0-1.37.72-2,1.55a6.77,6.77,0,0,1-3.28,2.7,6.09,6.09,0,0,1-1.81.28,4.24,4.24,0,0,1-1.55-.27c-2.34-.91-3.08-4.18-3.73-7.07-.58-2.57-1.08-4.79-2.69-5.09l-.33,0c-2,0-3.89,3.28-4.44,4.55-2,4.59.32,9.57,1.07,11a16.27,16.27,0,0,0,2.56,3.48c.85.93,1.22,1.36,1.09,2-.31,1.5-3,2.87-5.63,2.87a7.51,7.51,0,0,1-1.18-.1c-2.05-.35-3.15-1.54-4.31-2.81s-2.41-2.63-4.66-3a6.71,6.71,0,0,0-1.1-.09,10.8,10.8,0,0,0-5.11,1.64,5.44,5.44,0,0,1-1.77.75.3.3,0,0,1-.21-.07c-1-.92,2.1-6.71,3.27-8.89A65,65,0,0,1,294.28,316c6.25-7.38,9.69-11.44,13.94-11.44h.42c3.37.2,6.16,2.73,7.08,3.56a17.91,17.91,0,0,1,3.81,5.22c.85,1.58,1.51,2.83,2.84,2.83,1.12,0,2.32-.95,3.59-2.76a86.37,86.37,0,0,0,6.85-7.48,6.2,6.2,0,0,0,1.09-2.62c.21-.83.5-2,1.09-3.84s1.13-3.29,1.52-4.32a14.35,14.35,0,0,0,1.14-4.22c.25-2.24.46-4.17-.58-6.09-.9-1.65-2.18-2.28-4.75-3.54l-1.8-.89c-5.19-2.63-8.62-4.36-8.69-5.91s2.3-3.07,3.91-3.73a8.23,8.23,0,0,1,3.23-.63,23.28,23.28,0,0,1,6.71,1.45l.8.25a70,70,0,0,0,10.61,2.62,21.77,21.77,0,0,1,5.7,1.58c4.88,2,7.43,3.9,11.29,6.83,1.42,1.07,3,2.29,5,3.67a80.17,80.17,0,0,0,14.83,8.59,93,93,0,0,1,14.72,8.29c6,4.05,12.2,8.23,18.91,15.23,3.32,3.47,4.58,5.31,9.24,12.17,2,3,4.79,7,8.64,12.56,5.2,7.47,8,11.39,9.93,14a47.41,47.41,0,0,1,4.28,6.54c1.75,3.19,2.11,4.23,3.84,9.27,1.32,3.84,3.32,9.64,7.21,20.2l.62,1.68c4.44,12,6.67,18,3.65,22.66a10.79,10.79,0,0,1-4.76,3.9,44.76,44.76,0,0,1-10.71-14.9c-.4-.92-.73-1.8-1.05-2.62-1.06-2.79-1.9-5-4-5.58a3.48,3.48,0,0,0-.9-.12c-1.34,0-2.5.82-4.09,2a33.5,33.5,0,0,1-6.94,4c-3.05,1.28-5.26,2.2-7.68,2.2a10.08,10.08,0,0,1-1.54-.12,13.68,13.68,0,0,1-5.43-2.42,6.42,6.42,0,0,0-3.29-1.46,2.57,2.57,0,0,0-1.05.22,4.94,4.94,0,0,0-2.4,5.32c.82,3.49,6.29,4.88,10.27,5.9l1.19.31h.12a.51.51,0,0,0,.44-.26c1.05-1.92,3.13-4,5.23-4h.1c2.15.06,3.66,2.25,4.88,4a18.29,18.29,0,0,1,3.08,9.25c.59,7.58-2.38,13.54-3.64,16.09a21.11,21.11,0,0,1-3.82,5.51,92.3,92.3,0,0,0-7.22,9.19c-.92,1.3-1.66,2.39-2.27,3.29-2.09,3.08-2.63,3.81-3.69,3.89h-.16c-1.6,0-2.67-1.77-4.43-4.7a54.39,54.39,0,0,0-8.2-11,32.92,32.92,0,0,0-6.55-5.29,16.67,16.67,0,0,1-5.53-5.2c-1-1.36-1.75-2.7-2.44-3.88-1.69-2.91-3-5.2-5.78-5.81a6.91,6.91,0,0,0-1.47-.15c-2,0-4.09.81-4.85,1.94-1.87,2.79.36,10.65,41.23,46.55a.5.5,0,0,0,.33.12.46.46,0,0,0,.33-.13l14.3-12.77,2.26,4.07a49,49,0,0,1-1.55,9.24c-.74,2.45-1.63,3.77-4.27,7.69l-.41.62c-5.24,7.79-7.85,11.68-9,13.75-2.66,4.82-3.72,8.6-5.32,14.33a64.25,64.25,0,0,0-1.95,9.56c-.39,2.78-.89,6.23-2.28,12.64-2.52,11.65-4,14.38-5.19,16.17l-.3.42a47.93,47.93,0,0,0-4,6.5,48.64,48.64,0,0,0-2.58,6.15l-.08.24a60.09,60.09,0,0,1-8.37,15.16c-5.52,7.44-12.31,11.14-17.77,14.1S358.12,599,350.64,599Z" transform="translate(-99.45 -259.71)"/><path class="cls-3" d="M329,270.6a23.21,23.21,0,0,1,6.56,1.42l.8.25A69.46,69.46,0,0,0,347,274.91a21.21,21.21,0,0,1,5.59,1.56c4.82,1.93,7.35,3.85,11.18,6.76,1.42,1.07,3,2.29,5,3.67a80.6,80.6,0,0,0,14.91,8.64,92.3,92.3,0,0,1,14.65,8.26c6,4,12.15,8.19,18.83,15.16,3.29,3.44,4.54,5.27,9.19,12.1,2,3,4.78,7,8.64,12.57,5.2,7.46,8,11.39,9.93,14a48.51,48.51,0,0,1,4.26,6.49c1.72,3.15,2.08,4.19,3.8,9.2,1.32,3.84,3.32,9.64,7.21,20.2l.62,1.68c4.38,11.85,6.58,17.79,3.7,22.22a10.35,10.35,0,0,1-4.24,3.58,44.24,44.24,0,0,1-10.35-14.51c-.4-.91-.72-1.77-1-2.6-1.11-2.92-2-5.23-4.36-5.88a4.19,4.19,0,0,0-1-.14c-1.5,0-2.71.86-4.38,2.05a32.85,32.85,0,0,1-6.84,3.94c-3,1.25-5.17,2.16-7.49,2.16a9.17,9.17,0,0,1-1.46-.12,12.84,12.84,0,0,1-5.23-2.34,6.79,6.79,0,0,0-3.58-1.54,3.17,3.17,0,0,0-1.24.26,5.41,5.41,0,0,0-2.69,5.89c.9,3.79,6.53,5.23,10.64,6.28h0a2.72,2.72,0,0,0,.07,2.55,2,2,0,0,0,1.66.67c1.27,0,3.7-.78,3.82-2.27.09-1.18-1.12-1.77-2.58-2.22,1.05-1.42,2.58-2.66,4.1-2.66h.09c1.89.05,3.33,2.12,4.48,3.79a17.79,17.79,0,0,1,3,9c.58,7.45-2.34,13.32-3.59,15.83a20.72,20.72,0,0,1-3.75,5.4,94.38,94.38,0,0,0-7.25,9.24c-.92,1.3-1.67,2.4-2.27,3.29-2,2.92-2.49,3.61-3.31,3.67h-.13c-1.26,0-2.24-1.53-4-4.45a55.25,55.25,0,0,0-8.28-11.08,34,34,0,0,0-6.63-5.36,16.38,16.38,0,0,1-5.4-5.07c-.95-1.34-1.72-2.67-2.4-3.84-1.69-2.9-3.14-5.39-6.11-6.05a7.36,7.36,0,0,0-1.58-.16c-2.24,0-4.41.89-5.27,2.16-2.14,3.2.61,11.45,41.32,47.2a1,1,0,0,0,1.32,0l13.84-12.36,1.88,3.39a48,48,0,0,1-1.52,9c-.72,2.38-1.59,3.68-4.2,7.56l-.42.62c-5.23,7.79-7.86,11.7-9,13.79-2.69,4.87-3.75,8.68-5.36,14.45a63.59,63.59,0,0,0-2,9.61c-.4,2.77-.89,6.21-2.27,12.6-2.51,11.57-3.91,14.25-5.12,16l-.3.42a48.3,48.3,0,0,0-6.6,12.76l-.08.24a59.36,59.36,0,0,1-8.3,15c-5.45,7.35-12.19,11-17.61,14s-13.5,7.35-20.85,7.35a15.09,15.09,0,0,1-5.72-1.06,20.18,20.18,0,0,1-6-4c-1.19-1.22-3-3.39-4.51-8a23.49,23.49,0,0,1-1.28-7.81,48.73,48.73,0,0,0-.79-7.88c-.81-4.47-2-7.61-4.27-13.88-2.57-7-3.77-8.37-5.06-9.4a16.19,16.19,0,0,0-2.37-1.54,5.31,5.31,0,0,1-2.63-2.34,3.67,3.67,0,0,1-.31-1.93,24.17,24.17,0,0,0-.12-3c-.32-3.18-.62-6.19-2.4-8a6.47,6.47,0,0,0-4.76-1.63c-.94,0-1.9.09-2.84.18l-1.1.11c-.81.06-1.59.1-2.33.1a22.69,22.69,0,0,1-8.43-1.7,29.73,29.73,0,0,0-10.77-2.1h-.45a19,19,0,0,0-7.95,1.47,23.72,23.72,0,0,1-8.54,1.7c-.66,0-1.34,0-2,0a46.07,46.07,0,0,1-18.13-3.66,44.21,44.21,0,0,1-13.4-8.76c-6.31-6.19-8.82-12.8-10.84-18.1-2.18-5.72-4.43-11.63-4.16-19.66.11-3.28,1.07-14.72,8.75-24.19a12.48,12.48,0,0,1,.95-1c1.14-1.17,3.8-3.92,10.6-11.05a67.24,67.24,0,0,0,6.95-8,31.67,31.67,0,0,0,3.95-7.19,10.9,10.9,0,0,1,1.8-3.29c2.61-3.14,5.89-3.16,11.32-3.21a68,68,0,0,0,16.63-1.74,85.45,85.45,0,0,0,11.25-3.65c2.93-1.12,5.24-2,6.92-2a2.93,2.93,0,0,1,2,.7c.94.81,1.08,1.84,1.23,3.57a9.86,9.86,0,0,0,2.38,6.37c1.55,1.7,2.92,2,5.41,2.49a61.5,61.5,0,0,1,7.68,2c2.25.73,3.95,1.41,5.32,1.95,2.24.89,3.72,1.48,5.41,1.48a8,8,0,0,0,1.95-.25c2-.48,3.56-1.61,6.67-3.85a33.1,33.1,0,0,0,4.69-4,11.88,11.88,0,0,1,2.13-1.8,7.17,7.17,0,0,1,4.43-1.19c.82,0,1.78.06,2.89.12,1.67.09,3.74.21,6.41.21.86,0,1.75,0,2.63,0,12-.33,14.68-2.55,15.61-4.2a4.29,4.29,0,0,0,.51-2.5c0-.69,0-1.64.15-3.19a46,46,0,0,1,1.06-6.85c.45-2,.73-3.25-.13-4.79-1.24-2.23-4.29-3.78-7.43-3.78a7.48,7.48,0,0,0-3.39.74,5.21,5.21,0,0,0-2.35,2.44,5.51,5.51,0,0,1-1.51,1.88,9.19,9.19,0,0,1-5.59,1.65c-3.2,0-6.09-1.19-7.18-3a4.88,4.88,0,0,1-.5-3.09,5.46,5.46,0,0,0-1.2-4.45,6.61,6.61,0,0,0-4.66-2,3.69,3.69,0,0,0-2.57.88c-1.05,1-.8,2.31-.54,3.7a12.08,12.08,0,0,1,.24,4.28c-.46,3.35-2.5,6.52-3.74,6.52s-2.76-3.4-3.32-4.68a14.17,14.17,0,0,1-1.16-4.46,8.64,8.64,0,0,0-1-3.54c-1.32-2.38-3.32-3.15-7.3-4.67l-2.7-1c-4.51-1.79-7.79-3.35-9.95-4.38-2.31-1.1-3.47-1.65-4.29-1.65a1.4,1.4,0,0,0-1.19.58c-.48.68-1.37,1.94,7,9.74,2.11,2,3.82,3.3,5.19,4.37,2.33,1.8,3.49,2.71,4,4.66s.47,5.29-1.72,6.83a5.36,5.36,0,0,1-3.06.88c-1.47,0-2.62-.52-2.84-1s.27-1.17.74-2a8.53,8.53,0,0,0,1.44-6.21,7.82,7.82,0,0,0-.71-1.91c-1.56-3.09-4.52-4.51-7.65-6-.76-.36-1.44-.65-2.79-1.21-2.43-1-5.69-2.29-6.95-2.67a11.37,11.37,0,0,0-3.26-.45,20.61,20.61,0,0,0-12.45,4.86c-1.14,1-1.35,1.35-6.75,10.9l-.85,1.5c-3.77,6.66-5.55,9.64-8.43,10.63a12.79,12.79,0,0,1-4.07.58c-.56,0-1,0-1.3,0a22,22,0,0,1-6.62-1.59c-3.06-1.1-4.6-1.66-5.47-2.44-1.78-1.6-2.67-5.14-2.29-9,.42-4.3,2.25-7.91,4.77-9.4a6.51,6.51,0,0,1,3.43-.88,21.94,21.94,0,0,1,5.79,1.12,19.65,19.65,0,0,0,5.19,1,5,5,0,0,0,3.72-1.42c3.22-3.22,1-9.79.76-10.53a13.63,13.63,0,0,0-4.27-6,28.38,28.38,0,0,0,7-2.79,36.22,36.22,0,0,0,6.5-4.87c.66-.58,1.58-1.43,4.81-4.8,4.24-4.42,6-6.25,6.47-7a20.51,20.51,0,0,0,2.44-6.95,9.12,9.12,0,0,1,.56-2,5.72,5.72,0,0,1,.56.6,8.28,8.28,0,0,0,3.08,2.46,6.08,6.08,0,0,0,2.74.47,47.67,47.67,0,0,0,5.17-.39c4.67-.52,7-.79,8.38-1.76a5.79,5.79,0,0,0,2.19-3.06,24.62,24.62,0,0,1,1.77-3.56c.07-.1,1.13-1.74,7.29-8.83a1,1,0,0,0,.23-.83c-.39-2.32-1.35-6.25-3.45-6.62a1.77,1.77,0,0,0-.32,0c-1.07,0-1.71.85-2.4,1.75a6.3,6.3,0,0,1-3,2.53,5.85,5.85,0,0,1-1.66.25,3.9,3.9,0,0,1-1.37-.23c-2.09-.82-2.8-3.95-3.42-6.72s-1.15-5.11-3.09-5.47a3,3,0,0,0-.42,0c-2.76,0-4.81,4.65-4.9,4.85-2,4.67.09,9.54,1.09,11.42a17,17,0,0,0,2.63,3.57c.84.92,1,1.2,1,1.55-.23,1.12-2.58,2.48-5.14,2.48a6.53,6.53,0,0,1-1.1-.09c-1.88-.32-2.87-1.4-4-2.65a8.32,8.32,0,0,0-5-3.16,7.81,7.81,0,0,0-1.18-.09,11.17,11.17,0,0,0-5.35,1.7A8.55,8.55,0,0,1,283,337c-.23-.85.91-3.61,3.39-8.2a63.91,63.91,0,0,1,8.33-12.49C300.81,309,304.2,305,308.22,305h.39c3.19.19,5.89,2.63,6.77,3.44a17.18,17.18,0,0,1,3.71,5.08c.89,1.66,1.66,3.09,3.31,3.09h0c1.27,0,2.56-1,3.92-2.92a87.93,87.93,0,0,0,6.9-7.53,6.62,6.62,0,0,0,1.16-2.79c.21-.82.5-1.95,1.09-3.81s1.12-3.27,1.51-4.29a15,15,0,0,0,1.17-4.35c.24-2.22.47-4.32-.64-6.38-1-1.79-2.31-2.45-5-3.75-.53-.26-1.13-.55-1.79-.89-4.67-2.36-8.36-4.22-8.42-5.48-.05-1.09,1.79-2.51,3.6-3.25a7.81,7.81,0,0,1,3-.59m-34.85,75.53h0M329,269.6a8.88,8.88,0,0,0-3.42.66c-1.71.71-4.3,2.37-4.22,4.22s3,3.34,9,6.33c3.85,1.95,5.34,2.4,6.33,4.22s.76,3.64.52,5.81c-.31,2.81-1,3.34-2.63,8.43-1.49,4.68-1.11,4.92-2.11,6.33a82.06,82.06,0,0,1-6.82,7.41c-.9,1.31-2.07,2.6-3.21,2.62h0c-2.06,0-2.26-4.24-6.32-7.92-.91-.82-3.84-3.48-7.38-3.69h-.45c-4.48,0-8,4.14-14.32,11.62a65.11,65.11,0,0,0-8.44,12.66c-1.81,3.36-4.46,8.33-3.16,9.49a.76.76,0,0,0,.54.2c1.31,0,3.69-2.39,6.88-2.39a6,6,0,0,1,1,.08c4.2.68,4.57,5.06,9,5.8a7.69,7.69,0,0,0,1.27.11c2.87,0,5.75-1.52,6.12-3.27s-1.83-2.32-3.69-5.8c-.6-1.12-3-6-1.06-10.55.7-1.62,2.42-4.25,4-4.25l.24,0c2.89.52,1.65,10.31,6.33,12.13a4.89,4.89,0,0,0,1.73.3,6.82,6.82,0,0,0,2-.3c3.1-1,3.8-4.23,5.13-4.23h.15c1.75.31,2.63,5.8,2.63,5.8h0c-6.49,7.48-7.38,9-7.38,9-2.36,3.93-1.79,5-3.69,6.33-1.13.8-3.41,1.07-7.91,1.58a46.76,46.76,0,0,1-5.06.38,5.09,5.09,0,0,1-2.33-.38c-2.54-1.13-3-3.18-4.06-3.18h-.16c-1.7.31-.81,4.67-3.69,9.5-.41.69-2.39,2.75-6.33,6.86-3.34,3.47-4.18,4.24-4.75,4.74A35,35,0,0,1,272.8,371a27.9,27.9,0,0,1-9,3.17,13.09,13.09,0,0,1,5.8,6.85c.15.42,2.28,6.68-.53,9.5a4.06,4.06,0,0,1-3,1.12c-3.1,0-7.15-2.14-11-2.14a7.47,7.47,0,0,0-3.94,1c-6,3.55-7.07,16.06-2.64,20,1,.92,2.61,1.49,5.8,2.64a23.11,23.11,0,0,0,6.91,1.65c.29,0,.76,0,1.35,0a13.88,13.88,0,0,0,4.4-.64c3.29-1.13,5.23-4.46,9-11.07,6.13-10.85,6.32-11.23,7.38-12.14a19.62,19.62,0,0,1,11.8-4.62,10.3,10.3,0,0,1,3,.41c1.23.36,4.47,1.63,6.86,2.63,1.33.56,2,.84,2.73,1.19,3.18,1.54,5.81,2.85,7.2,5.58a6.86,6.86,0,0,1,.62,1.67c.87,4.08-3,6.53-2.11,8.44.44,1,2,1.59,3.75,1.59a6.36,6.36,0,0,0,3.63-1.06c2.54-1.79,2.76-5.5,2.11-7.91-1-3.56-3.74-4.13-9.49-9.5-.65-.61-7.73-7.2-6.86-8.44a.44.44,0,0,1,.37-.15c1.24,0,5.14,2.49,13.87,6,5.9,2.33,8.11,2.78,9.5,5.27s.36,3.89,2.11,7.91c.8,1.85,2.28,5.25,4.22,5.28h0c2.08,0,4.24-3.91,4.72-7.39.55-4-1.27-6.17,0-7.38a2.74,2.74,0,0,1,1.88-.61,5.66,5.66,0,0,1,3.93,1.66c2,2.2,0,4.76,1.58,7.39,1.36,2.2,4.7,3.44,8,3.44a10.18,10.18,0,0,0,6.21-1.86c2-1.6,1.64-3.19,3.69-4.22a6.6,6.6,0,0,1,2.94-.63c2.6,0,5.42,1.22,6.56,3.27s-.45,3.54-1.06,11.07c-.32,3.93.08,4.21-.53,5.28s-2.42,3.35-14.76,3.69c-.93,0-1.8,0-2.61,0-4.46,0-7.21-.33-9.3-.33a8.22,8.22,0,0,0-5,1.35c-2.19,1.4-2.42,2.6-6.86,5.8-3,2.17-4.52,3.25-6.33,3.69a7.1,7.1,0,0,1-1.71.22c-2.47,0-4.58-1.47-10.42-3.38-8.66-2.84-10.37-1.7-12.66-4.22-3.39-3.73-1-7.68-3.69-10a4,4,0,0,0-2.7-.94c-3.67,0-9.25,3.51-18.4,5.69-15.78,3.76-23.35-.9-28.49,5.28-2.26,2.72-1.57,4.56-5.8,10.55a65.56,65.56,0,0,1-6.86,7.91c-11.62,12.18-11.16,11.58-11.6,12.13-8.3,10.24-8.89,22.63-9,24.79-.28,8.23,2,14.31,4.22,20,2.05,5.37,4.61,12.12,11.08,18.47a45.41,45.41,0,0,0,13.71,9A47.3,47.3,0,0,0,266,528.77c.72,0,1.41,0,2.05,0,9.33-.41,8.59-3.17,16.45-3.17h.43c9.44.12,11.29,3.8,19.22,3.8.75,0,1.55,0,2.41-.11,1.27-.1,2.61-.28,3.86-.28a5.42,5.42,0,0,1,4.05,1.34c1.53,1.54,1.81,4.3,2.11,7.38.33,3.27-.18,3.82.53,5.28,1.11,2.29,3.1,2.47,5.27,4.22,1.2.95,2.29,2.26,4.75,9,2.29,6.23,3.43,9.34,4.22,13.72,1.45,8,0,9.44,2.11,15.82,1.6,4.81,3.46,7.13,4.75,8.44a21.1,21.1,0,0,0,6.33,4.22,16,16,0,0,0,6.1,1.14c7.6,0,15.74-4.43,21.33-7.47s12.35-6.71,17.93-14.24a62.27,62.27,0,0,0,8.44-15.3,49.21,49.21,0,0,1,2.64-6.33,48.63,48.63,0,0,1,4.22-6.85c1.25-1.8,2.7-4.47,5.27-16.35,2.88-13.31,1.92-13.91,4.22-22.16,1.59-5.67,2.65-9.47,5.28-14.24,1.13-2.05,3.74-5.94,9-13.71,2.95-4.39,3.95-5.8,4.75-8.44a50.86,50.86,0,0,0,1.58-9.5l-2.63-4.75-14.77,13.19c-36.13-31.73-43.29-42.7-41.15-45.89.67-1,2.57-1.72,4.44-1.72a6.25,6.25,0,0,1,1.37.14c3.63.8,4.66,4.91,7.91,9.49,4.06,5.73,6,4.27,12.13,10.55,8.43,8.58,9.32,15.83,13,15.83h.2c1.74-.13,2.31-1.69,6.33-7.39,7.4-10.5,8.37-9.34,11.07-14.77,1.41-2.83,4.29-8.78,3.7-16.35a18.7,18.7,0,0,0-3.17-9.49c-1.26-1.82-2.88-4.15-5.27-4.22h-.12c-2.41,0-4.6,2.29-5.67,4.26,1.87.5,3.2.94,3.15,1.55s-1.71,1.34-2.82,1.34a1.05,1.05,0,0,1-.87-.29c-.32-.41-.08-1.45.54-2.6-3.93-1-10.26-2.31-11.09-5.84a4.44,4.44,0,0,1,2.11-4.74,2,2,0,0,1,.84-.18c2.12,0,4.25,3.16,8.65,3.87a10.1,10.1,0,0,0,1.62.13c2.52,0,4.81-1,7.88-2.24,6.43-2.69,8.41-5.91,10.83-5.91a2.61,2.61,0,0,1,.77.11c2.44.67,3,3.84,4.75,7.91a45.11,45.11,0,0,0,11.07,15.3,11.75,11.75,0,0,0,5.28-4.22c3.3-5.07.7-11.47-4.22-24.8-9.15-24.8-8-23.92-11.08-29.53-2.49-4.56-2.34-3.49-14.24-20.58-12.48-17.91-13.08-19.72-17.93-24.79-6.75-7-12.92-11.2-19-15.29-14.19-9.58-16.18-7.39-29.54-16.88-7.1-5-9.57-7.82-16.35-10.55-5.81-2.34-4.92-.68-16.35-4.22-2.84-.88-5.28-1.72-7.66-1.72Zm-1.84,40.75h0Zm0,0c-1.43,2-1.86,2.73-1.69,2.73a.31.31,0,0,0,.15-.07,19.82,19.82,0,0,0,1.54-2.66Z" transform="translate(-99.45 -259.71)"/><path class="cls-5" d="M353.81,386.75a8.19,8.19,0,0,1-6.24-2.86c-1.79-2.34-1.08-5.47.09-10.66.76-3.34,1.15-4.85,2.38-5.46a1.8,1.8,0,0,1,.85-.22,5.81,5.81,0,0,1,2.24.75,16.34,16.34,0,0,0,5.05,1.62,12.78,12.78,0,0,0,1.8.14,13.3,13.3,0,0,0,3.31-.47,11.21,11.21,0,0,1,2.83-.42,10.34,10.34,0,0,1,2.06.22c1.63.32,5.44,1.08,6.48,3.9a5.62,5.62,0,0,1-1.44,5.79c-1.43,1.27-4.17,1.36-10.23,1.45h-.8c-2.31,0-3.84,0-4.85,1.23a3.57,3.57,0,0,0-.7,2.61,2.15,2.15,0,0,1-.35,1.6A3.35,3.35,0,0,1,353.81,386.75Z" transform="translate(-99.45 -259.71)"/><path class="cls-5" d="M350.89,368.05a5.53,5.53,0,0,1,2,.71,17.24,17.24,0,0,0,5.19,1.66,12.83,12.83,0,0,0,5.3-.35,11.33,11.33,0,0,1,2.71-.4,10.08,10.08,0,0,1,2,.21c1.55.31,5.17,1,6.11,3.59a5.14,5.14,0,0,1-1.3,5.23c-1.3,1.15-4.13,1.25-9.91,1.33h-.8c-2.45,0-4.07,0-5.22,1.4a4.08,4.08,0,0,0-.82,2.95c0,.64,0,1-.22,1.26a3,3,0,0,1-2.11.6,7.78,7.78,0,0,1-5.84-2.66c-1.65-2.16-1-5,.18-10.25.71-3.1,1.09-4.61,2.11-5.13a1.37,1.37,0,0,1,.63-.16m0-1a2.33,2.33,0,0,0-1.08.27c-1.46.73-1.88,2.46-2.63,5.8-1.22,5.34-1.94,8.55,0,11.08a8.74,8.74,0,0,0,6.63,3.05,3.8,3.8,0,0,0,2.86-.94c1-1.15-.13-2.82,1.06-4.22.95-1.13,2.51-1,5.27-1.06,5.95-.09,8.95-.16,10.55-1.58a6.12,6.12,0,0,0,1.58-6.33c-1.14-3.08-5.2-3.89-6.86-4.22a11.27,11.27,0,0,0-2.15-.23c-2.33,0-3.62.88-6.14.88a12.28,12.28,0,0,1-1.73-.12c-3.92-.55-5.65-2.38-7.36-2.38Z" transform="translate(-99.45 -259.71)"/><path class="cls-5" d="M404.12,383.17c-.5,0-1.21-.38-4.86-5.08-1.95-2.52-2.76-3.72-3.3-4.51a10.77,10.77,0,0,0-1.48-1.86,14.33,14.33,0,0,0-4.8-3.32,10.79,10.79,0,0,1-4.15-3c-.84-1-3.38-3.88-3-7.54.18-1.93,1.15-4.18,2.19-4.3h0c.6,0,1.19.76,2.15,2,.45.58,1,1.26,1.62,2a63.14,63.14,0,0,0,5.86,5.85,26.07,26.07,0,0,0,3.56,2.71c1,.65,2.23,1.47,4.38,3.12,5.77,4.43,6,5.6,6.14,6a7.78,7.78,0,0,1-1.64,6.12,3.87,3.87,0,0,1-2.62,1.71Z" transform="translate(-99.45 -259.71)"/><path class="cls-5" d="M384.76,354.07c.28,0,1,.92,1.69,1.82.43.56,1,1.26,1.63,2.05h0a63.66,63.66,0,0,0,5.9,5.91,26.83,26.83,0,0,0,3.62,2.74c1,.66,2.22,1.47,4.35,3.1,3.74,2.88,5.75,4.81,6,5.77a7.29,7.29,0,0,1-1.55,5.69,3.46,3.46,0,0,1-2.25,1.52c-.6,0-2.83-2.79-4.46-4.89-1.94-2.5-2.75-3.69-3.29-4.48a11.23,11.23,0,0,0-1.53-1.93,14.87,14.87,0,0,0-4.95-3.43,10.16,10.16,0,0,1-4-2.86c-.8-.92-3.24-3.72-2.93-7.16.19-1.95,1.14-3.78,1.76-3.85h0m0-1h-.13c-1.43.16-2.46,2.75-2.64,4.74-.35,3.8,2.21,6.82,3.16,7.92,3.2,3.66,5.22,2.47,9,6.33,1.4,1.43.93,1.4,4.75,6.33s4.53,5.27,5.25,5.27h0c2.57,0,5.61-4.74,4.75-8.44-.14-.61-.55-1.89-6.33-6.33-4.62-3.55-5.06-3.27-7.91-5.8a60.31,60.31,0,0,1-5.8-5.8c-2.26-2.7-3-4.23-4.09-4.23Z" transform="translate(-99.45 -259.71)"/><path class="cls-3" d="M410.91,559.92a36.65,36.65,0,0,0,2.13-4.09,27.92,27.92,0,0,0,1.75-5.28,11.44,11.44,0,0,1,1.8-4.37,10.47,10.47,0,0,1,1.05-1.33c.46-.53,1.1-1.25,2.35-2.9,1-1.35,1.66-2.28,2.34-3.27l.59-.85c2.19-3.16,3.79-5.35,4.78-6.57-.25.59-.58,1.3-.92,2.06-.73,1.63-1.73,3.86-2.91,6.65-1.44,3.44-2.18,5.46-2.68,6.79a18.57,18.57,0,0,1-1.78,3.93,30.66,30.66,0,0,1-8.6,9.41Z" transform="translate(-99.45 -259.71)"/><path class="cls-3" d="M429,530.58h0m-3.6,4.57q-.89,2-2,4.63c-1.45,3.45-2.19,5.48-2.69,6.81a18.23,18.23,0,0,1-1.74,3.84,33.5,33.5,0,0,1-6.55,7.81c.33-.63.69-1.36,1.07-2.21a29.36,29.36,0,0,0,1.78-5.36,11,11,0,0,1,1.73-4.21,10,10,0,0,1,1-1.28c.47-.53,1.12-1.26,2.38-2.93,1-1.36,1.67-2.3,2.35-3.29l.59-.85c.77-1.11,1.47-2.09,2.09-3m3.22-5.48c-.66,0-4.5,5.52-6.13,7.87-.93,1.34-1.62,2.38-2.92,4.11-2.29,3-2.5,2.9-3.41,4.25-2.21,3.28-1.35,4.61-3.6,9.73-1.55,3.54-2.91,5-2.63,5.27a.16.16,0,0,0,.12,0c1,0,6.18-4,9.77-10,1.63-2.73,1.24-3,4.5-10.79,2.92-6.95,4.72-10.26,4.35-10.48Z" transform="translate(-99.45 -259.71)"/><path class="cls-3" d="M179.58,569c-4,0-26.62-20.56-42.16-50.9-17.09-33.37-16.69-65.51-16.56-76.07.07-5.11.37-10.39.69-14.57,0,4.31,0,10.09.09,16.76.15,13.4.39,20.14,4.22,26.88a63.1,63.1,0,0,0,5.59,8,43.31,43.31,0,0,0,5.22,5.22,21.79,21.79,0,0,1,3.08,3.07c2.52,3.2,2.63,5.93,2.78,9.38a35.39,35.39,0,0,0,1.09,8.25c2.41,9.07,8.39,14.77,16,22a69.83,69.83,0,0,0,9.61,7.7c3.27,2.25,5.08,3.49,6.49,7.15a16.34,16.34,0,0,1,1,5.34c.18,2.16.44,5.43,1.35,11.17.59,3.68,1.08,6.13,1.41,7.75a10.24,10.24,0,0,1,.4,2.83.44.44,0,0,1-.25.06Z" transform="translate(-99.45 -259.71)"/><path class="cls-3" d="M122.88,419.35h0m-1,41.23a28.92,28.92,0,0,0,3.51,10.75,62.33,62.33,0,0,0,5.64,8.06h0a45,45,0,0,0,5.27,5.28,21.41,21.41,0,0,1,3,3c2.41,3.08,2.52,5.6,2.67,9.09a36.36,36.36,0,0,0,1.1,8.35c2.45,9.21,8.48,15,16.1,22.23a71.25,71.25,0,0,0,9.68,7.75c3.19,2.19,4.94,3.4,6.3,6.92a15.91,15.91,0,0,1,1,5.2c.18,2.17.44,5.45,1.36,11.21.58,3.69,1.08,6.15,1.41,7.77.19.95.36,1.8.41,2.26-4.42-.75-26.59-21.53-41.48-50.6a153.74,153.74,0,0,1-16-57.27m0-41.57c-.19,0-1.44,12-1.58,22.95-.13,10.45-.56,42.82,16.62,76.35,15.09,29.46,37.93,51.17,42.6,51.17a.94.94,0,0,0,.52-.14c.72-.49-.15-2-1.58-11.08-1.91-12-1-13-2.38-16.61-2.54-6.59-6.51-5.78-16.22-15-7.46-7.12-13.44-12.83-15.82-21.76-2.15-8.09.39-12.28-4-17.81-2.19-2.79-4.3-3.57-8.3-8.3a61.41,61.41,0,0,1-5.54-7.91c-3.72-6.54-4-13.16-4.16-26.64-.16-14.84,0-25.18-.19-25.19Z" transform="translate(-99.45 -259.71)"/><path class="cls-6" d="M254,354.59c.07.56.18,1.38.26,2.38a9.26,9.26,0,0,1,.06,2.5c-.5,1.9-2.8,2.36-2.63,3s2,.74,3.56.13c1-.38,1.63-1.07,2.9-2.44s2.06-2.24,2.24-3.29c0-.1.34-2.14-.72-2.91-.73-.52-1.23.17-3.37-.06-1.11-.12-1.93-.41-2.24,0A.83.83,0,0,0,254,354.59Z" transform="translate(-99.45 -259.71)"/><path class="cls-6" d="M266.08,341.27c-1.7.07-2.83,1.85-3.83,3.43s-1.52,2.42-1.38,3.17c.3,1.6,2.33,1.41,4.81,4.22a6.67,6.67,0,0,1,1.72,3.36,2.6,2.6,0,0,1-.2,1.91c-.52.77-1.29.46-2.51,1.32a9.47,9.47,0,0,0-1.58,1.72c-.78,1-1.17,1.44-1.06,1.78.2.58,1.47.75,2.25.72,1.13,0,1.65-.54,2.37-.2.13.07.62.32.66.73.07.72-1.29,1.38-1.85,1.65-.92.45-1,.25-2.24.79a4.6,4.6,0,0,0-2,1.38c-.26.35-.49.65-.39.86.29.61,3.15-.22,3.76-.4,1.67-.48,1.85-.75,3.89-1.51,2.21-.83,2.86-.85,5-1.78,1.86-.81,2.32-1.22,2.63-1.72a4.05,4.05,0,0,0,.33-3.23c-.54-1.57-1.71-1.44-3.49-3.23-2-2-1.08-2.75-3.49-5.73-1.11-1.37-2.25-2.39-1.92-3.17.11-.24.27-.27,1.45-1.25a4.71,4.71,0,0,0,1-.93c.41-1-.87-2.75-2.44-3.49A3.12,3.12,0,0,0,266.08,341.27Z" transform="translate(-99.45 -259.71)"/><path class="cls-6" d="M134,370C135.56,358,145.68,347,145.68,347c14.73-16,36.71-39.94,38.37-38.37.36.33-.49,1.74-2.17,4.55-6.5,10.83-13.9,16.45-13.45,17s6.44-3.16,13.45-8.9c8.24-6.76,12.7-12.26,13.45-11.67.46.35-1,2.55-4,8.3-4.85,9.41-7.27,14.12-8.3,17.81-.93,3.32-1.13,5.44-3.17,7.51s-4,2-5.14,4.35c-.59,1.19-.24,1.46-1,5.74-.7,4-1.13,4.5-1.58,4.75-1.39.76-3.93-.27-4.75-2-.94-1.95.57-4.34,1.58-5.93,1.22-1.93,1.93-1.95,3.17-4s2.09-4.4,1.58-4.75-1.77,1.76-5.54,4.55c-2,1.47-3.13,2-4.55,3.76-.89,1.11-1.79,2.25-1.58,3.56s1.51,1.82,1.38,3c-.1.9-1,1.47-1.78,2-.26.17-3.36,2.1-4.94,1s0-4.4-1.19-5.14c-1.63-1-7.51,3.63-11.47,9.5-.39.57-3,4.53-6.73,9.49-1.19,1.61-2.27,3-3,2.77C133.29,375.51,133.85,371.17,134,370Z" transform="translate(-99.45 -259.71)"/><path class="cls-6" d="M199.68,314.37c1.06.29,1.68-3.05,5.14-4.74,2.55-1.25,3.72-.18,5.94-.79,5.24-1.47,4.08-9,10.88-16a21.06,21.06,0,0,1,9.1-5.93c4.34-1.32,6.15-.05,14.24-.79,3.57-.33,9.67-.88,9.89-2.57.15-1.15-2.43-2.58-4.35-3.17-2.78-.84-3.85.19-6.73-.59-2.61-.71-2.67-1.82-4.55-2.38-2.76-.81-4.56,1-11.47,4.75-5.09,2.76-7.63,3.68-12.07,6.92-3.13,2.29-4.25,3.57-4.35,5.15-.16,2.53,2.46,3.54,2.18,6.13-.24,2.16-2.36,4.11-4.35,4.75-1.78.56-2.63-.18-6.14.39a6.42,6.42,0,0,0-2.77.79C197.67,308.2,198.34,314,199.68,314.37Z" transform="translate(-99.45 -259.71)"/><path class="cls-6" d="M238.85,288.46l28.28-1.19c-3.09,5.35-5.95,9.62-8.11,12.66-5.48,7.74-7.74,9.48-8.9,10.29a29.6,29.6,0,0,1-11.27,4.55c-9.34,2.07-11.26-1-15.43,1.58-4.54,2.85-3.39,7.24-9.89,11.67-1.47,1-4.08,2.74-5.94,1.78-2.05-1.06-2-4.79-2-4.94.15-5,5-6.76,13.45-15.23,3.9-3.93,3-3.72,9.69-10.88C232.91,294.3,236.45,290.78,238.85,288.46Z" transform="translate(-99.45 -259.71)"/><path class="cls-6" d="M243.2,322.09c1-1.75,3.68-1.7,9.1-1.58,1.14,0,1.87.09,2.17.59.67,1.1-1.23,3.55-3,4.94-1.17.94-4.12,3.31-6.53,2A4.79,4.79,0,0,1,243.2,322.09Z" transform="translate(-99.45 -259.71)"/></svg>