<svg id="Layer_1" data-name="Layer 1" xmlns="http://www.w3.org/2000/svg" viewBox="0 0 505.69 158.71"><defs><style>.cls-1{fill:#4eb74a;}.cls-2{fill:#fff;}</style></defs><path class="cls-1" d="M50.59,369.08H71.33V479.2H50.59Zm8.25,45.86h38.3a10,10,0,0,0,5.6-1.59,10.3,10.3,0,0,0,3.74-4.54,17.18,17.18,0,0,0,1.4-6.81,16.55,16.55,0,0,0-1.32-6.81,10.32,10.32,0,0,0-3.75-4.54,10.1,10.1,0,0,0-5.67-1.59H58.84v-20h40a30.72,30.72,0,0,1,16,4.08,27.67,27.67,0,0,1,10.67,11.55,41.36,41.36,0,0,1,0,34.59,27.55,27.55,0,0,1-10.71,11.54,30.79,30.79,0,0,1-15.93,4.09h-40ZM82,431.52,104.17,428l29.67,51.16H108.72Z" transform="translate(-50.59 -359.83)"/><path class="cls-1" d="M141.11,400.64h20.74V479.2H141.11Z" transform="translate(-50.59 -359.83)"/><path class="cls-2" d="M193,483.31a33.1,33.1,0,0,1-12.89-13.81,44.77,44.77,0,0,1-4.58-20.7v-29a44.77,44.77,0,0,1,4.58-20.7A33.3,33.3,0,0,1,193,385.28a37.29,37.29,0,0,1,19.29-4.91A37.76,37.76,0,0,1,229,384.08a34.76,34.76,0,0,1,12.74,10.5,38.34,38.34,0,0,1,6.94,15.72H238.24a27.8,27.8,0,0,0-5.7-10.53,28.5,28.5,0,0,0-9.26-7.12,25.17,25.17,0,0,0-11-2.54,25.58,25.58,0,0,0-13.8,3.7,24.69,24.69,0,0,0-9.23,10.43A35.19,35.19,0,0,0,186,419.82v29a35.16,35.16,0,0,0,3.27,15.58,24.4,24.4,0,0,0,9.23,10.39,25.73,25.73,0,0,0,13.8,3.67,26.34,26.34,0,0,0,11-2.4,26.75,26.75,0,0,0,9.26-7,27.62,27.62,0,0,0,5.7-10.82H248.7a38.18,38.18,0,0,1-7,15.72,35.08,35.08,0,0,1-12.79,10.5A40,40,0,0,1,193,483.31Z" transform="translate(-50.59 -359.83)"/><path class="cls-2" d="M254.22,411.68H265l24.77,70-5.45,11.62Zm66.76,0-32.11,93.06a22.1,22.1,0,0,1-4.57,8.17,16,16,0,0,1-7,4.32,34.16,34.16,0,0,1-10.16,1.31h-3v-9.88h3c3.87,0,7-.89,9.26-2.65s4.27-4.81,5.92-9.12l27.89-85.21Z" transform="translate(-50.59 -359.83)"/><path class="cls-2" d="M338.78,484.54a23.59,23.59,0,0,1-10.86-10.89q-3.6-7.27-3.59-18.24V443q0-10.82,3.63-18a23.65,23.65,0,0,1,10.86-10.79q7.23-3.6,18.12-3.6a43.83,43.83,0,0,1,11.26,1.35,30.26,30.26,0,0,1,9.08,4,27.41,27.41,0,0,1,7,6.72l-7.77,6.9a25.35,25.35,0,0,0-8.68-6.93,24.48,24.48,0,0,0-10.64-2.29q-11.27,0-16.82,5.63t-5.55,17v12.42q0,11.55,5.59,17.29t16.78,5.74a28.07,28.07,0,0,0,11.22-2.18,26.69,26.69,0,0,0,9.12-6.61l6.75,6.68a27.13,27.13,0,0,1-7,6.61,30.17,30.17,0,0,1-9.08,3.93,45.28,45.28,0,0,1-11.26,1.3Q346.05,488.17,338.78,484.54Z" transform="translate(-50.59 -359.83)"/><path class="cls-2" d="M405,467.25q0,4.8,2.36,7.45a8.32,8.32,0,0,0,6.57,2.65h7v9.73h-8.72q-8.43,0-13-5.23t-4.61-14.74V381.46H405Z" transform="translate(-50.59 -359.83)"/><path class="cls-2" d="M444.48,484.21a26.34,26.34,0,0,1-11.3-11.55c-2.59-5.05-3.88-11.15-3.88-18.26v-8.5q0-11.19,3.74-19.11a26.71,26.71,0,0,1,10.86-12.06q7.11-4.14,17.14-4.14a30.5,30.5,0,0,1,16.13,4.07,26,26,0,0,1,10.2,11.88q3.53,7.8,3.53,18.78V454H436.41v-9.44h44.75v-.73q0-11.19-5.27-17.32T461,420.33q-10.53,0-16.27,6.46T439,445.1v9.59q0,11.32,6.1,17.54t17.22,6.21a26.32,26.32,0,0,0,10.35-2.18,28.64,28.64,0,0,0,9.11-6.17l7.12,6.82a40,40,0,0,1-12.49,8.32,36,36,0,0,1-14.09,2.94Q451.88,488.17,444.48,484.21Z" transform="translate(-50.59 -359.83)"/><path class="cls-2" d="M505.14,411.68H515.6v75.4H505.14Zm38.53,9.88a24.76,24.76,0,0,0-8.17-1.23q-9.45,0-14.67,5.05t-5.23,14l-1.53-14.53a29.38,29.38,0,0,1,10.86-10.5,29.77,29.77,0,0,1,14.71-3.74,27.67,27.67,0,0,1,9.33,1.49,20.89,20.89,0,0,1,7.3,4.4l-6.75,8.71A15,15,0,0,0,543.67,421.56Z" transform="translate(-50.59 -359.83)"/><path class="cls-1" d="M149.74,372l10.69-.52,4.87-8.78-3.74,2.17-2.05-3.4a3,3,0,0,0-1-1,3.2,3.2,0,0,0-1.47-.47,5.41,5.41,0,0,0-.77,0H154l-5.29-.06,5.66,9.46Z" transform="translate(-50.59 -359.83)"/><path class="cls-1" d="M147.91,359.9l3.47,5.77-4.23,7.61-8.23-4.53,4.09-7.29a3.85,3.85,0,0,1,2-1.48,7,7,0,0,1,2.12-.13C147.47,359.86,147.73,359.88,147.91,359.9Z" transform="translate(-50.59 -359.83)"/><path class="cls-1" d="M148.48,381.36l-5.8-9-10,.17,3.76,2.15-1.92,3.47a2.9,2.9,0,0,0-.42,1.35,3.35,3.35,0,0,0,.33,1.51,5.21,5.21,0,0,0,.37.68c.33.57.72,1.25,1.16,2l2.59,4.61,5.37-9.63Z" transform="translate(-50.59 -359.83)"/><path class="cls-1" d="M138.89,389l3.26-5.89,8.7-.14c.07,3.13.13,6.26.2,9.39l-8.36.11a3.84,3.84,0,0,1-2.29-1,7.38,7.38,0,0,1-1.18-1.77A6.63,6.63,0,0,1,138.89,389Z" transform="translate(-50.59 -359.83)"/><path class="cls-1" d="M157,377.86l-4.89,9.52,5.17,8.61v-4.33l4-.07a2.92,2.92,0,0,0,1.38-.31,3.36,3.36,0,0,0,1.14-1,5.87,5.87,0,0,0,.41-.66c.32-.57.72-1.25,1.17-2L168,383l-11,.18Z" transform="translate(-50.59 -359.83)"/><path class="cls-1" d="M168.42,382.34l-6.73.13L157.22,375l8-4.86,4.28,7.18a3.85,3.85,0,0,1,.26,2.49,7.39,7.39,0,0,1-.94,1.91C168.68,382,168.53,382.2,168.42,382.34Z" transform="translate(-50.59 -359.83)"/></svg>