<svg id="Layer_1" data-name="Layer 1" xmlns="http://www.w3.org/2000/svg" viewBox="0 0 299.59 101.84"><defs><style>.cls-1{fill:#1b6e46;}.cls-2{fill:#1c6e46;}.cls-3{fill:#231f20;}</style></defs><path class="cls-1" d="M193.25,404l30.06-1.48L237,377.85,226.48,384q-2.86-4.79-5.75-9.55a8.2,8.2,0,0,0-2.7-2.9,9.24,9.24,0,0,0-4.14-1.33,14.31,14.31,0,0,0-2.17-.06c-1.83,0-4,0-6.56,0l-14.9-.16,15.92,26.6Z" transform="translate(-145.17 -369.71)"/><path class="cls-1" d="M188.1,369.91q4.89,8.1,9.76,16.22L186,407.52l-23.15-12.73,11.49-20.51a10.88,10.88,0,0,1,5.7-4.14,20.46,20.46,0,0,1,6-.38C186.86,369.79,187.59,369.85,188.1,369.91Z" transform="translate(-145.17 -369.71)"/><path class="cls-1" d="M189.71,430.26,173.41,405l-28.24.49,10.56,6.06-5.4,9.75a8.31,8.31,0,0,0-1.16,3.79,9.22,9.22,0,0,0,.92,4.25,14.54,14.54,0,0,0,1,1.91c.92,1.58,2,3.5,3.25,5.7q3.65,6.49,7.31,13l15.07-27.09Z" transform="translate(-145.17 -369.71)"/><path class="cls-1" d="M162.74,451.77q4.59-8.28,9.17-16.56l24.47-.41q.27,13.21.55,26.41l-23.51.31a10.81,10.81,0,0,1-6.43-2.87,20.44,20.44,0,0,1-3.32-5C163.26,452.9,163,452.24,162.74,451.77Z" transform="translate(-145.17 -369.71)"/><path class="cls-1" d="M213.67,420.41l-13.75,26.78q7.28,12.1,14.54,24.2l0-12.17,11.15-.2a8.29,8.29,0,0,0,3.86-.89,9.27,9.27,0,0,0,3.22-2.92,16.64,16.64,0,0,0,1.14-1.85c.91-1.59,2-3.5,3.31-5.67l7.59-12.82-31,.49Z" transform="translate(-145.17 -369.71)"/><path class="cls-1" d="M245.79,433l-18.93.35-12.58-21,22.59-13.68,12,20.2a10.73,10.73,0,0,1,.73,7,20.45,20.45,0,0,1-2.64,5.36C246.51,432,246.09,432.6,245.79,433Z" transform="translate(-145.17 -369.71)"/><path class="cls-2" d="M257,416.07h7.7V457H257Zm3.07,17h14.21a3.65,3.65,0,0,0,2.08-.59,3.81,3.81,0,0,0,1.39-1.68,6.44,6.44,0,0,0,.52-2.53,6.08,6.08,0,0,0-.49-2.53,3.89,3.89,0,0,0-1.39-1.69,3.78,3.78,0,0,0-2.11-.59H260.11v-7.41h14.83a11.42,11.42,0,0,1,5.93,1.51,10.34,10.34,0,0,1,4,4.29,15.32,15.32,0,0,1,0,12.84,10.27,10.27,0,0,1-4,4.28,11.47,11.47,0,0,1-5.92,1.52H260.11Zm8.59,6.16,8.24-1.3,11,19h-9.33Z" transform="translate(-145.17 -369.71)"/><path class="cls-2" d="M290.65,416.1h7.7v7.69h-7.7Zm0,11.68h7.7V457h-7.7Z" transform="translate(-145.17 -369.71)"/><path class="cls-3" d="M309.92,458.47a12.22,12.22,0,0,1-4.79-5.12,16.69,16.69,0,0,1-1.7-7.69V434.9a16.65,16.65,0,0,1,1.7-7.68,12.33,12.33,0,0,1,4.79-5.14,13.83,13.83,0,0,1,7.16-1.82,14,14,0,0,1,6.2,1.38,12.83,12.83,0,0,1,4.73,3.89,14.12,14.12,0,0,1,2.57,5.84H326.7a10.45,10.45,0,0,0-2.11-3.91,10.6,10.6,0,0,0-3.44-2.64,9.33,9.33,0,0,0-4.07-.95,9.49,9.49,0,0,0-5.13,1.38,9.21,9.21,0,0,0-3.42,3.87,13,13,0,0,0-1.22,5.78v10.76a13.08,13.08,0,0,0,1.22,5.79A9.1,9.1,0,0,0,312,455.3a9.57,9.57,0,0,0,5.13,1.36,9.7,9.7,0,0,0,4.07-.89,9.81,9.81,0,0,0,3.44-2.59,10.36,10.36,0,0,0,2.11-4h3.88A14.1,14.1,0,0,1,328,455a13,13,0,0,1-4.75,3.9,14.79,14.79,0,0,1-13.33-.43Z" transform="translate(-145.17 -369.71)"/><path class="cls-3" d="M332.64,431.88h4l9.19,26-2,4.31Zm24.78,0L345.5,466.42a8.23,8.23,0,0,1-1.7,3,6,6,0,0,1-2.59,1.6,12.41,12.41,0,0,1-3.77.49h-1.11v-3.67h1.11a5.52,5.52,0,0,0,3.43-1,7.57,7.57,0,0,0,2.2-3.39l10.35-31.63Z" transform="translate(-145.17 -369.71)"/><path class="cls-3" d="M364,458.93a8.79,8.79,0,0,1-4-4.05,15.16,15.16,0,0,1-1.33-6.76V443.5a14.74,14.74,0,0,1,1.35-6.68,8.75,8.75,0,0,1,4-4,15,15,0,0,1,6.72-1.33,16,16,0,0,1,4.18.5,11,11,0,0,1,3.37,1.48A10.2,10.2,0,0,1,380.9,436L378,438.52a9.62,9.62,0,0,0-3.22-2.58,9.1,9.1,0,0,0-3.95-.85q-4.19,0-6.25,2.09t-2.06,6.32v4.62q0,4.28,2.08,6.41t6.23,2.13a10.39,10.39,0,0,0,4.16-.81,9.92,9.92,0,0,0,3.39-2.45l2.5,2.48a9.87,9.87,0,0,1-2.59,2.45,10.93,10.93,0,0,1-3.37,1.46,16.88,16.88,0,0,1-4.18.49A15,15,0,0,1,364,458.93Z" transform="translate(-145.17 -369.71)"/><path class="cls-3" d="M388.59,452.51a4,4,0,0,0,.88,2.76,3.07,3.07,0,0,0,2.44,1h2.58v3.61h-3.23a6.12,6.12,0,0,1-4.84-1.94,8,8,0,0,1-1.71-5.47V420.67h3.88Z" transform="translate(-145.17 -369.71)"/><path class="cls-3" d="M403.26,458.81a9.76,9.76,0,0,1-4.19-4.29,14.63,14.63,0,0,1-1.45-6.78v-3.16a16.57,16.57,0,0,1,1.39-7.09,9.92,9.92,0,0,1,4-4.47,12.42,12.42,0,0,1,6.37-1.54,11.26,11.26,0,0,1,6,1.51,9.57,9.57,0,0,1,3.79,4.41,16.87,16.87,0,0,1,1.31,7v3.21H400.27v-3.51h16.61v-.27a9.6,9.6,0,0,0-2-6.43,6.86,6.86,0,0,0-5.51-2.28,7.65,7.65,0,0,0-6,2.4q-2.13,2.4-2.13,6.8v3.56a8.9,8.9,0,0,0,2.26,6.51,8.58,8.58,0,0,0,6.39,2.3,9.67,9.67,0,0,0,3.84-.81,10.63,10.63,0,0,0,3.39-2.29l2.64,2.54a14.75,14.75,0,0,1-4.64,3.08,13.31,13.31,0,0,1-5.23,1.1A13.87,13.87,0,0,1,403.26,458.81Z" transform="translate(-145.17 -369.71)"/><path class="cls-3" d="M425.78,431.88h3.88v28h-3.88Zm14.3,3.67a9,9,0,0,0-3-.46A7.52,7.52,0,0,0,431.6,437a6.89,6.89,0,0,0-1.94,5.19l-.57-5.4a10.88,10.88,0,0,1,4-3.89,11,11,0,0,1,5.46-1.39,10.27,10.27,0,0,1,3.47.55,7.76,7.76,0,0,1,2.71,1.63l-2.51,3.24A5.52,5.52,0,0,0,440.08,435.55Z" transform="translate(-145.17 -369.71)"/></svg>
